PathFileType	4	(X/Y/Z)	Formatted/subject04/trials/walk2/markers.trc
DataRate	CameraRate	NumFrames	NumMarkers	Units	OrigDataRate	OrigDataStartFrame	OrigNumFrames
199.9999999999954	199.9999999999954	4	64	m	199.9999999999954	27	223
Frame#	Time	CLAV			C7			RACR			RASH			RPSH			RLEL			RMEL			RUA1			RUA2			RUA3			RFAsuperior			RFAradius			RFAulna			RASI			RPSI			RCAL			RTOE			RMT5			RTH1			RTH2			RTH3			RTB1			RTB2			RTB3			RLFC			RMFC			RLMAL			RMMAL			RHJC			RKJC			REJC			RAJC			RSJC			LACR			LASH			LPSH			LLEL			LMEL			LUA1			LUA2			LUA3			LFAsuperior			LFAradius			LFAulna			LASI			LPSI			LCAL			LTOE			LMT5			LTH1			LTH2			LTH3			LTB1			LTB2			LTB3			LLFC			LMFC			LLMAL			LMMAL			LHJC			LKJC			LEJC			LAJC			LSJC			
		X1	Y1	Z1	X2	Y2	Z2	X3	Y3	Z3	X4	Y4	Z4	X5	Y5	Z5	X6	Y6	Z6	X7	Y7	Z7	X8	Y8	Z8	X9	Y9	Z9	X10	Y10	Z10	X11	Y11	Z11	X12	Y12	Z12	X13	Y13	Z13	X14	Y14	Z14	X15	Y15	Z15	X16	Y16	Z16	X17	Y17	Z17	X18	Y18	Z18	X19	Y19	Z19	X20	Y20	Z20	X21	Y21	Z21	X22	Y22	Z22	X23	Y23	Z23	X24	Y24	Z24	X25	Y25	Z25	X26	Y26	Z26	X27	Y27	Z27	X28	Y28	Z28	X29	Y29	Z29	X30	Y30	Z30	X31	Y31	Z31	X32	Y32	Z32	X33	Y33	Z33	X34	Y34	Z34	X35	Y35	Z35	X36	Y36	Z36	X37	Y37	Z37	X38	Y38	Z38	X39	Y39	Z39	X40	Y40	Z40	X41	Y41	Z41	X42	Y42	Z42	X43	Y43	Z43	X44	Y44	Z44	X45	Y45	Z45	X46	Y46	Z46	X47	Y47	Z47	X48	Y48	Z48	X49	Y49	Z49	X50	Y50	Z50	X51	Y51	Z51	X52	Y52	Z52	X53	Y53	Z53	X54	Y54	Z54	X55	Y55	Z55	X56	Y56	Z56	X57	Y57	Z57	X58	Y58	Z58	X59	Y59	Z59	X60	Y60	Z60	X61	Y61	Z61	X62	Y62	Z62	X63	Y63	Z63	X64	Y64	Z64	

28	1.545	1.422720799387161	1.430116346778397	-0.4247309597547501	1.317551949364965	1.527217019603917	-0.4540300914346639	1.364114849406773	1.471603539652953	-0.2815241914375385	1.418145813044941	1.420522308845905	-0.2564795685851163	1.318521853633458	1.441747760819792	-0.258235387395053	1.263774196082893	1.150615333700547	-0.1935237185186103	1.229743885366966	1.159715969584882	-0.2721362460648953	1.325924618744378	1.32685693155125	-0.2146653927858212	1.262807641350938	1.302319098048371	-0.2136528008456436	1.294262575599986	1.230594167144537	-0.204901217433703	1.294076515868949	1.068845924861216	-0.2567512775881948	1.336397137752487	0.8888705722914796	-0.2254413972296954	1.27543310640023	0.8976856145738166	-0.1854935436259469	1.406559528040756	0.9874444628490774	-0.3403223132363329	1.226634818603431	1.026811095097987	-0.4193556924811995	1.408369763755595	0.0612900728411575	-0.3883002288239059	1.643724436641421	0.05677089260724844	-0.3873235068245694	1.624050071202448	0.0314496287672616	-0.3138734431191084	1.378966851627257	0.8213922892750672	-0.2777309439719717	1.443408651462523	0.7369346076544746	-0.2850182627143231	1.41976259624846	0.5892072749648779	-0.2996108432310887	1.523492979470952	0.3431151210996861	-0.3608706761543337	1.484305672126194	0.2371186877128124	-0.3201095564262376	1.516830092533565	0.1655933261560418	-0.3810383909066604	1.471567884044199	0.4798580142626504	-0.3118437175935501	1.480161312964881	0.4960365998167187	-0.4361351888750047	1.483670317228323	0.06086266713926536	-0.3221965703540258	1.49467165425961	0.06148345198276201	-0.4228525030840804	1.322676049060877	0.8996151349449251	-0.3900637470964865	1.479847734638389	0.4949778700937412	-0.3790534677159521	1.247373567018847	1.150146152448569	-0.2302887323950796	1.477002213682454	0.04846361112694081	-0.3806263603958665	1.371476969258632	1.430465371823072	-0.2573020819066312	1.372497693273558	1.493425215008441	-0.6288454620371972	1.427894288213087	1.433949196365783	-0.6472886511509777	1.320300412048685	1.45687268449758	-0.6491849354657093	1.350465172522621	1.156908567847223	-0.7343920312913812	1.304875673747592	1.146260605903295	-0.6623421448730491	1.35007657764154	1.363758956798195	-0.7086015359955171	1.293603007759389	1.290531844263462	-0.7026835146622701	1.358988595607527	1.228298709438535	-0.7214099578770747	1.396013834731072	1.090646202850297	-0.6748803979602928	1.494167585477658	0.9306790081210931	-0.6737025188232197	1.442936200723675	0.9135887907162425	-0.7257323132144856	1.403764293902058	0.9875052999951505	-0.5977589384379319	1.22796670073604	1.028460185875892	-0.512614052994925	0.8643020509029548	0.2632034169090886	-0.5713446873944145	0.9887488753702375	0.05672705474839673	-0.558838173420936	0.9538610653129174	0.06709586736099112	-0.64464067208148	1.311354564673376	0.8410586627500721	-0.6602649839138013	1.342514583772562	0.702076367249537	-0.656136330908212	1.241992207102167	0.6045835656514943	-0.6556313331279733	1.138071321257302	0.3449503599149922	-0.6038596850864483	1.069471254406541	0.3316770157776738	-0.6453460081676099	1.027697023471917	0.2610235606713384	-0.5918397415082984	1.246724240762201	0.4825683633460047	-0.6440385798645077	1.253488081393738	0.4715755332379165	-0.5258681697595839	0.9108290829139685	0.2028142770395857	-0.6352121392707688	0.9176441764975178	0.196542213047128	-0.5343793703076131	1.320535797798702	0.9013957307361582	-0.5495118086112034	1.253448996923458	0.4703197267116793	-0.5827168321343369	1.32908925976346	1.145047474994568	-0.6999170846609759	0.8967228834752884	0.201810884996876	-0.5767976812913134	1.381225444426777	1.44389225934295	-0.6481111644724925	
29	1.55	1.429090006949669	1.430698131178259	-0.4242032052150627	1.323832123758903	1.527797652413825	-0.4531847130671322	1.370795240509047	1.472050483019624	-0.2808305221809676	1.424894641508981	1.420961438715576	-0.2559501148330286	1.325261839143083	1.442163956297575	-0.2574646909826591	1.27196140930454	1.150730878606719	-0.1918434786515639	1.237364538932358	1.159621551189731	-0.2702324167079588	1.333332975628561	1.327170410769418	-0.2136005137881568	1.270312911453668	1.302407601604052	-0.212131417341931	1.302084140645758	1.230805730836406	-0.2035157390642387	1.302563192048126	1.069264062335509	-0.2552312922039194	1.346586940109023	0.8896512883281278	-0.2241888664398512	1.285790369014518	0.8979505284342694	-0.1838769742302773	1.412869067273208	0.9886869764497228	-0.339374960217929	1.232996318304358	1.027393446340143	-0.4188514422903045	1.408884057663512	0.061717445507934	-0.3881486331685115	1.644211241773684	0.05594343214109752	-0.3871605980166706	1.624396982074484	0.03065670408207364	-0.313736246382772	1.385128273803245	0.8218760078942581	-0.276727375919573	1.449104942113468	0.7370717873728536	-0.2840881271629727	1.424647505232772	0.5894902533025902	-0.2988179859403691	1.526556926525513	0.3427210136776268	-0.36038210850984	1.48645560762429	0.2370242544206879	-0.3197319285087417	1.518310254434354	0.1652909008732068	-0.3807699953624933	1.475851250988827	0.4798689074825979	-0.3111479833472592	1.484542242587323	0.4961141319913515	-0.435423977932492	1.484257804960571	0.06078356194735923	-0.3220410563476904	1.49520651839495	0.0614344536290416	-0.4227025365583735	1.329276532770001	0.9005105233318826	-0.3889918970360591	1.484248181007763	0.4949873067665375	-0.3783476833454845	1.255312805834162	1.150161795620409	-0.2284954520925864	1.477446645265986	0.04851811866953437	-0.3804825447274545	1.378221655240676	1.430893758076863	-0.256659618030323	1.378393945624967	1.494166379313836	-0.628151223276139	1.433763500374499	1.434719468018906	-0.646768631621394	1.326160073819329	1.457618187007465	-0.648404373862995	1.354907772365903	1.157630432014436	-0.733112439797666	1.309718209102472	1.147241009674826	-0.6607734399392085	1.355326495102196	1.364521642769225	-0.7076519675623841	1.298658753791821	1.291483055435365	-0.7012778843370082	1.36373412152815	1.229013739600344	-0.7202962685204047	1.400126304773055	1.090659177204201	-0.6739761519442276	1.496448697039815	0.9295784647897871	-0.6737516291418891	1.444708675143688	0.9131930204397655	-0.7255040896321284	1.410534689137435	0.9879399538860965	-0.5968151001849623	1.234491405905941	1.028755263956337	-0.5121119665326695	0.8744992260758072	0.2703751999821784	-0.5719875710551507	0.9914385777817771	0.05960840994117221	-0.5586286271870652	0.9569409441928729	0.07087548828219548	-0.6444756222678854	1.319146700024703	0.8418410349140836	-0.6594836889167924	1.352221322317753	0.7032849581444199	-0.6559688661799465	1.253055339086912	0.6044115184213217	-0.6559857434302252	1.148610809076234	0.3464750580399241	-0.6046070444981425	1.079731923447065	0.3344437202710134	-0.6460100862376721	1.036718839333761	0.2646085842113219	-0.5924111494287595	1.259464964255107	0.4824213657258743	-0.6449488500728756	1.266299371964022	0.4709803292643581	-0.5268250538496142	0.9187485190229204	0.2085390623504257	-0.6356177850637204	0.9255571238036866	0.2022079077334382	-0.5347882707030417	1.327417723790209	0.9017898028086795	-0.5484482979450062	1.26630688716445	0.4697062354287982	-0.5836734225925567	1.333701869866843	1.145891703325295	-0.6984909282321818	0.904690215717045	0.2078343792000868	-0.5771874154855087	1.387090514106194	1.444651787380193	-0.6474781348186884	
30	1.555	1.435433665745494	1.43128534553317	-0.4236939790993932	1.330101864062241	1.528399353424706	-0.4523566346071989	1.377454409646319	1.4725074372827	-0.2801559421490659	1.431614167135518	1.421402286670991	-0.2554404701544269	1.331976140512741	1.442596061644151	-0.2567146573917645	1.280148745289978	1.150858425999012	-0.190173268512495	1.244975358712222	1.159535144447443	-0.2683292698288086	1.340727165541132	1.327494174810397	-0.2125521309167053	1.277809068988039	1.302505139880764	-0.2106170055570351	1.309898938372992	1.231028509440861	-0.202143494018014	1.311057440257239	1.069713235815618	-0.2537376536829191	1.356840654796694	0.890489010675568	-0.2229960602522458	1.296225223976083	0.8982527880241619	-0.1823064743067246	1.419128640377425	0.9899420703279176	-0.3384941161512887	1.239291222635703	1.02799780796078	-0.41836383412248	1.409349587588015	0.06212166807345582	-0.387986664188335	1.64464663762408	0.05521842127084026	-0.3870688118294958	1.624731561519662	0.02996990841389156	-0.313658585985377	1.391254919527447	0.8223735817265938	-0.2757977527463494	1.454731213415756	0.7372027462871749	-0.2832569396955389	1.429404470384461	0.5897789243561269	-0.2980966489776316	1.529471999855367	0.3423414756877733	-0.3599754568121097	1.488514678540619	0.2369437986934723	-0.3194022471278356	1.519702027905716	0.1650101752670806	-0.3805491293061965	1.479960693360491	0.4798701789720669	-0.3105396342058929	1.488690901926149	0.496166450222728	-0.4348061964267041	1.484820616276106	0.06073071515779105	-0.3219016843117921	1.49567881104876	0.06139949011489426	-0.4225728516358626	1.335813768074537	0.9014256371843454	-0.3879725179547004	1.488438618667948	0.4949806099845345	-0.3777341771196724	1.263247737298413	1.150187630174459	-0.2267078134242826	1.477850194371335	0.0485877366641545	-0.380349967870861	1.384938733564078	1.431330510557168	-0.2560373631657578	1.384277025291557	1.494925366278879	-0.6274733920027352	1.43961084044723	1.435500211070307	-0.6462656930304878	1.33200177169463	1.458389488041319	-0.6476418152468123	1.359303192565564	1.158390389638007	-0.731881737951787	1.314508564194528	1.148255245084009	-0.6592615772594378	1.360552648234679	1.365315929623289	-0.7067293260378945	1.303683832713757	1.292473859594595	-0.6999126012310969	1.368439825247582	1.229762794865669	-0.7192232624156629	1.404178930838823	1.090722790055701	-0.6731146845747792	1.498665417782321	0.9285597235514542	-0.6738169818273004	1.44643322119235	0.9128772210748827	-0.7252920881857342	1.417193601163356	0.9884117228202068	-0.5959341027306519	1.240927250502072	1.0290811847708	-0.5116256426167662	0.8849254081849076	0.2775246955417995	-0.5725961762471081	0.9945003919726909	0.06289598838901828	-0.5583219289217559	0.960425295674872	0.07498989669713517	-0.6442251624820394	1.326923397923887	0.8426241136290014	-0.6587301646202147	1.361959055136699	0.7045383331137998	-0.6557483913769577	1.264208222175723	0.6042671644191181	-0.6563114026523986	1.159321260698168	0.3480999905290996	-0.605264967033959	1.090202258094764	0.3372869615979576	-0.6466039041726422	1.045964957438622	0.2682987001635077	-0.5929047545018166	1.27233647772633	0.4823352150791146	-0.645774569338366	1.279180281059787	0.4704978097110808	-0.5276903795908565	0.9269584532356008	0.2143481029907149	-0.6359673385036992	0.9337290391911366	0.2079899222787761	-0.5351369646676959	1.334198342901114	0.9022187770456951	-0.5474347293036823	1.279260606730798	0.4691848334128462	-0.5845400906491659	1.338264054527404	1.146772012053306	-0.6971181781797149	0.9129351543077278	0.2139554960223507	-0.577525628174717	1.39293540687579	1.445428434956484	-0.6468625860418186	
31	1.56	1.441754952577989	1.43187969499275	-0.4232004452662617	1.336364551441235	1.529023467672144	-0.4515450668584582	1.384093884592518	1.47297725039685	-0.2794986178034364	1.438305702705094	1.421847969823932	-0.2549477369378358	1.338666047289141	1.443047071935202	-0.2559836608134426	1.288339760822256	1.1509997788734	-0.188514835212882	1.252581311044807	1.159458566646173	-0.2664288601831406	1.348109006382165	1.327830671384172	-0.2115195951515087	1.285298388822315	1.30261352280241	-0.2091101989840021	1.317709760532651	1.231264630215244	-0.200785096916924	1.319561497935935	1.070194543255486	-0.2522715291284122	1.367153995679717	0.8913850018874825	-0.2218647329876435	1.30673325391286	0.8985953220793315	-0.1807856100201478	1.425329948299905	0.9911772236784945	-0.3376831371701255	1.245517743453364	1.028625367323847	-0.41789607478827	1.409768156566098	0.06249534275146999	-0.3878207081118271	1.64503399845746	0.0545858984753503	-0.3870311794955688	1.62504975023541	0.02937895990821771	-0.3136254645457842	1.39732167749279	0.8228736308699917	-0.2749557584512296	1.460267859147035	0.7373204216615785	-0.2825305306906336	1.434024482747016	0.5900655089878365	-0.2974543386994203	1.53224117363815	0.3419706332258036	-0.3596461917924261	1.490480540272444	0.2368706122080535	-0.319119744722369	1.521008428180431	0.1647436548301808	-0.3803715872994933	1.483894819578039	0.4798577232991396	-0.3100195825428752	1.492618797410512	0.4961899890849329	-0.4342818567435934	1.48535478661114	0.06069567765927969	-0.3217774086481706	1.496094276874484	0.06137041817958366	-0.4224612686167323	1.342270856113861	0.9023453961403815	-0.3870261483246563	1.492424944609315	0.4949539227426867	-0.3772131173064671	1.271182630173803	1.150225463227888	-0.224927749313152	1.478214288921257	0.04866419524992505	-0.3802282194466782	1.39162950612549	1.431778689207956	-0.2554330154773639	1.390152305656163	1.495702107998933	-0.6268102919215938	1.445441959807231	1.436291262044481	-0.6457770068715879	1.337831131958002	1.459186292324653	-0.6468958046572432	1.36366270283024	1.159187618544009	-0.7306972969014908	1.31925535532272	1.149302358901722	-0.6578053442992786	1.365763591820733	1.36614098793638	-0.7058321963517191	1.308687142556695	1.293502873697935	-0.6985878619308237	1.373115894796782	1.230545168611193	-0.7181884001595971	1.408179665326956	1.090833351604255	-0.6722932443072135	1.500820486978022	0.9276152196923534	-0.673896102198584	1.44811298967243	0.9126362636526857	-0.7250955203876205	1.423740527653735	0.9889295997848918	-0.595120226493089	1.247275459515167	1.029453906716404	-0.5111582813504032	0.8955418890521404	0.2845146324766265	-0.5731972623579665	0.998133011343062	0.06652698030802143	-0.55795395982928	0.9645092520969478	0.0793517396708541	-0.6439290068105302	1.33468068759946	0.8434068887944166	-0.6580176553807	1.371707552680239	0.7058330526205935	-0.6554638560134555	1.275421353342385	0.6041593546691126	-0.6565937053840945	1.170195494725328	0.3497987038979642	-0.6058178479081658	1.10088514962661	0.3401528275859119	-0.6471252197899547	1.055453164476626	0.2720245763715885	-0.5933256494174211	1.285294305600166	0.482320209832755	-0.6464822631676019	1.292069671712796	0.4701514946870898	-0.528427807665137	0.9355019883950682	0.2201252957738566	-0.6362882046129981	0.9421872989485338	0.2137786843738144	-0.5354514120688293	1.340865781935867	0.9026933385475697	-0.5464919447208539	1.292256913956619	0.4687764984143665	-0.5852800595331401	1.342785871430183	1.147687525658579	-0.6957968257093147	0.9214901104315175	0.2200553408331253	-0.5778424781527205	1.398765763227628	1.446221981428506	-0.6462622854111159	
